<svg width="139" height="40" viewBox="0 0 139 40" fill="none" xmlns="http://www.w3.org/2000/svg">
<g clip-path="url(#clip0_913_824)">
<path d="M126.055 35.6218C126.001 35.6533 125.939 35.6679 125.876 35.6636C125.814 35.6594 125.754 35.6365 125.705 35.5979C124.736 34.993 119.862 31.7771 116.565 27.7412C114.554 25.2497 122.243 21.5402 122.243 22.0298C122.251 24.6766 122.995 31.6377 126.152 35.0248C126.214 35.1001 126.247 35.1957 126.243 35.2933C126.24 35.3909 126.2 35.4837 126.131 35.5542L126.055 35.6059" fill="#FFAD00"/>
<path d="M124.032 19.4427L131.026 16.2945C131.909 15.9525 132.708 15.4254 133.367 14.7494C134.025 14.0734 134.529 13.2645 134.842 12.3781L135.715 9.9502C135.726 9.9178 135.731 9.8835 135.728 9.84929C135.726 9.81507 135.717 9.78162 135.702 9.75089C135.687 9.72015 135.665 9.69273 135.639 9.67024C135.613 9.64774 135.583 9.63062 135.55 9.61985C135.489 9.59612 135.421 9.59612 135.361 9.61985L122.006 15.2238L122.054 15.0129C122.088 14.8193 122.165 14.6355 122.279 14.4746C122.393 14.3137 122.541 14.1795 122.713 14.0815C124.973 12.7044 133.076 8.60492 133.076 8.60492C134.347 8.01649 135.476 7.16748 136.39 6.11419C137.304 5.06091 137.981 3.82741 138.377 2.49547L138.988 0.421837C139.008 0.339081 138.996 0.251826 138.953 0.177867C138.91 0.103908 138.841 0.0488158 138.759 0.0238269C138.688 -0.000129789 138.612 -0.000129789 138.542 0.0238269C138.542 0.0238269 126.349 4.71238 122.428 6.59895C118.507 8.48552 114.494 10.9094 113.102 18.0457C112.539 20.9353 113.573 23.383 115.515 26.1572C115.507 23.4308 122.476 20.187 124.032 19.4427Z" fill="#FFAD00"/>
<path d="M106.837 7.22782C105.731 6.392 104.79 6.32036 104.625 6.392C104.553 6.1333 105.896 5.50444 106.061 5.34126C106.603 4.82782 106.909 4.14723 107.544 3.70942C108.839 2.80195 110.44 3.08056 111.783 3.80494C112.467 4.17509 114.349 5.39698 114.377 5.45668C115.402 6.21692 116.355 7.06821 117.224 7.99996C117.28 8.06485 117.311 8.14742 117.311 8.2328C117.311 8.31818 117.28 8.40075 117.224 8.46563C116.906 8.76812 116.597 8.98305 116.211 9.30544C113.653 11.4308 112.113 17.0905 112.089 17.791C112.089 17.8189 112.089 17.8348 112.089 17.8348C112.089 17.8348 110.589 9.84275 106.837 7.22782Z" fill="#FFAD00"/>
<path d="M9.48651 19.9283H5.98386V32.4377H2.99193V19.9283H0V17.5124H2.99193V14.384C2.9844 13.5599 3.08579 12.7383 3.29353 11.9402C3.4763 11.2304 3.81397 10.5688 4.2828 10.0019C4.756 9.4426 5.35515 9.00092 6.03211 8.71237C6.85307 8.37447 7.73719 8.21303 8.62592 8.23874C9.26037 8.22725 9.89347 8.30089 10.5079 8.45764L10.1541 11.0089C9.92082 10.9492 9.68758 10.8935 9.45433 10.8537C9.18884 10.8076 8.91957 10.7863 8.65005 10.79C8.17058 10.769 7.69384 10.8719 7.26669 11.0885C6.93154 11.2779 6.65381 11.5528 6.46241 11.8845C6.25904 12.2406 6.12277 12.6304 6.06026 13.0348C5.99491 13.4789 5.96266 13.9272 5.96375 14.376V17.5124H9.4664L9.48651 19.9283Z" fill="#656565"/>
<path d="M21.0118 22.7621C21.0118 21.6503 20.6727 20.8264 19.9944 20.2904C19.2119 19.7281 18.2575 19.4498 17.292 19.5024C16.462 19.4967 15.64 19.6635 14.8792 19.9919C14.1756 20.2863 13.5334 20.7074 12.9851 21.2337L11.3765 19.3432C12.1648 18.6237 13.0904 18.0676 14.099 17.7074C15.2044 17.3023 16.3747 17.0987 17.5534 17.1064C18.5121 17.0877 19.4661 17.2428 20.3684 17.5641C21.1055 17.8324 21.774 18.2577 22.3268 18.8098C22.8377 19.3419 23.2284 19.9755 23.4729 20.6686C23.7383 21.4071 23.8743 22.1852 23.875 22.9691V29.4765C23.875 29.978 23.875 30.5113 23.9233 31.0686C23.9403 31.5304 23.9982 31.9899 24.0962 32.4417H21.3938C21.2263 31.74 21.1413 31.0214 21.1405 30.3004H21.044C20.5125 31.0797 19.7958 31.718 18.9569 32.1591C18.0348 32.6178 17.0127 32.8447 15.981 32.8198C15.3532 32.815 14.7281 32.7361 14.1191 32.585C13.4893 32.4325 12.8916 32.1711 12.3537 31.8128C11.8113 31.4426 11.3593 30.9572 11.0307 30.3919C10.6607 29.7277 10.4787 28.9769 10.5039 28.2188C10.4505 27.2363 10.7818 26.2713 11.4288 25.5243C12.0947 24.8309 12.9236 24.3113 13.8416 24.0118C14.9328 23.6459 16.0665 23.4186 17.2156 23.3352C18.4663 23.2317 19.729 23.176 21.0038 23.176L21.0118 22.7621ZM20.2799 25.3173C19.5359 25.3173 18.7679 25.3492 17.9716 25.4128C17.2393 25.4628 16.5142 25.5882 15.8081 25.787C15.2142 25.948 14.6645 26.2391 14.1995 26.6387C13.9881 26.8293 13.8215 27.0635 13.7117 27.3249C13.6019 27.5863 13.5515 27.8684 13.5642 28.1511C13.5493 28.5362 13.6426 28.9178 13.8336 29.2536C14.012 29.5469 14.2571 29.7949 14.5494 29.978C14.8493 30.1715 15.1836 30.3066 15.5346 30.376C15.9024 30.4515 16.277 30.4888 16.6526 30.4875C18.052 30.4875 19.1244 30.0722 19.8697 29.2417C20.6355 28.378 21.0397 27.2578 20.9997 26.1094V25.3133L20.2799 25.3173Z" fill="#656565"/>
<path d="M32.9998 17.9104C33.8832 17.3396 34.921 17.0481 35.9756 17.0745C36.9399 17.0619 37.8903 17.3022 38.7303 17.7711C39.6116 18.3061 40.289 19.1151 40.6565 20.0715C41.1324 19.14 41.8733 18.3666 42.7879 17.8467C43.6991 17.3329 44.7312 17.0665 45.7798 17.0745C46.6452 17.0519 47.5049 17.2191 48.2972 17.5641C48.97 17.8688 49.5671 18.3158 50.0465 18.8735C50.5203 19.4424 50.8695 20.1024 51.072 20.8118C51.2986 21.5783 51.4111 22.3734 51.4058 23.172V32.4377H48.4138V24.1511C48.4149 23.569 48.3611 22.988 48.253 22.4158C48.1593 21.9051 47.9755 21.4147 47.7101 20.9671C47.4618 20.5521 47.1119 20.2058 46.6927 19.9601C46.201 19.6921 45.645 19.5614 45.0841 19.582C44.4727 19.5636 43.8678 19.7109 43.3348 20.0079C42.8515 20.2775 42.4384 20.655 42.1284 21.1104C41.8129 21.5749 41.5866 22.093 41.4608 22.6387C41.3208 23.2054 41.2506 23.7867 41.2517 24.3701V32.4377H38.2678V23.5502C38.2725 23.0153 38.2186 22.4815 38.107 21.9581C38.02 21.5044 37.8363 21.0743 37.5681 20.6964C37.3131 20.3575 36.9793 20.0844 36.5949 19.9004C36.1264 19.6875 35.6142 19.5853 35.099 19.6019C34.5667 19.5963 34.0406 19.7144 33.5629 19.9467C33.0851 20.1789 32.6691 20.5189 32.3483 20.9392C31.6124 21.8347 31.2464 23.0248 31.2464 24.5213V32.4815H28.2384V20.7163C28.2384 20.3183 28.2384 19.8009 28.2063 19.172C28.1741 18.5432 28.154 17.978 28.1138 17.5004H30.9288C30.9743 17.8798 31.0065 18.3057 31.0253 18.778C31.0253 19.2516 31.0574 19.6457 31.0574 19.972H31.154C31.5634 19.1282 32.2027 18.4142 32.9998 17.9104Z" fill="#656565"/>
<path d="M58.8332 40H55.8413V17.5124H58.7729V19.8448H58.8654C59.392 19.0126 60.1314 18.333 61.0088 17.8746C62.0209 17.344 63.1533 17.0782 64.2983 17.1025C65.3509 17.09 66.3945 17.2946 67.3626 17.7035C68.2648 18.0894 69.0756 18.6574 69.7433 19.3711C70.4183 20.0986 70.9417 20.9507 71.2835 21.8786C71.6493 22.8622 71.8318 23.9032 71.8224 24.9512C71.8304 26.0043 71.6479 27.0503 71.2835 28.0398C70.9458 28.9696 70.4281 29.8254 69.7594 30.5592C69.0937 31.2782 68.2826 31.8505 67.3787 32.2388C66.3861 32.6613 65.3144 32.8715 64.234 32.8557C63.1775 32.8611 62.1341 32.624 61.1858 32.1632C60.2662 31.73 59.4854 31.0537 58.9297 30.2089H58.8332V40ZM68.7661 24.9393C68.768 24.2543 68.6608 23.5733 68.4484 22.9214C68.2465 22.2889 67.9228 21.701 67.4954 21.19C67.0638 20.6834 66.5258 20.276 65.919 19.996C65.2348 19.6897 64.4901 19.5388 63.7394 19.5542C63.0191 19.5455 62.3059 19.6964 61.6522 19.996C61.0383 20.2795 60.4906 20.6861 60.0437 21.19C59.5927 21.698 59.2421 22.2853 59.0102 22.9214C58.5223 24.2439 58.5223 25.6944 59.0102 27.0169C59.2404 27.6502 59.5912 28.2339 60.0437 28.7363C60.493 29.2376 61.0402 29.6438 61.6522 29.9303C62.3062 30.2286 63.0194 30.3782 63.7394 30.3681C64.4914 30.3837 65.237 30.2285 65.919 29.9144C66.5224 29.6288 67.0592 29.2222 67.4954 28.7204C67.9221 28.2075 68.2456 27.6184 68.4484 26.9851C68.6645 26.3244 68.7717 25.6337 68.7661 24.9393Z" fill="#656565"/>
<path d="M84.7833 22.7621C84.7833 21.6503 84.4428 20.8264 83.7619 20.2904C82.9793 19.7244 82.0233 19.4432 81.0555 19.4944C80.2255 19.4891 79.4036 19.6558 78.6426 19.984C77.9397 20.2774 77.2987 20.6986 76.7526 21.2258L75.144 19.3352C75.9313 18.6145 76.8572 18.0581 77.8665 17.6994C78.9717 17.2937 80.1422 17.09 81.3209 17.0984C82.2796 17.0792 83.2338 17.2343 84.1359 17.5561C84.8729 17.8245 85.5415 18.2497 86.0943 18.8019C86.6153 19.3275 87.0146 19.959 87.2645 20.6526C87.5231 21.3924 87.6523 22.1704 87.6466 22.9531V29.4765C87.6466 29.978 87.6466 30.5113 87.6948 31.0685C87.7139 31.5302 87.7717 31.9895 87.8677 32.4417H85.1654C84.9946 31.7404 84.9082 31.0217 84.908 30.3004H84.8115C84.2805 31.0787 83.5654 31.7168 82.7284 32.1591C81.8061 32.6173 80.7842 32.8442 79.7525 32.8198C79.1247 32.8152 78.4996 32.7364 77.8906 32.585C77.2593 32.4333 76.6602 32.1719 76.1212 31.8128C75.5783 31.4415 75.1263 30.9546 74.7982 30.3879C74.4263 29.7244 74.2442 28.9731 74.2714 28.2148C74.2159 27.232 74.5474 26.2662 75.1963 25.5203C75.8619 24.8265 76.6909 24.3068 77.6091 24.0078C78.7003 23.6419 79.834 23.4146 80.9831 23.3312C82.2378 23.2277 83.5005 23.172 84.7753 23.172L84.7833 22.7621ZM84.0474 25.3173C83.3075 25.3173 82.5353 25.3491 81.7391 25.4128C81.0068 25.4631 80.2818 25.5885 79.5756 25.787C78.9821 25.9489 78.4325 26.2399 77.967 26.6387C77.7562 26.8298 77.5901 27.0641 77.4804 27.3254C77.3706 27.5866 77.3199 27.8684 77.3317 28.1511C77.3205 28.5373 77.4179 28.919 77.6132 29.2536C77.7916 29.5469 78.0367 29.7949 78.329 29.978C78.63 30.1719 78.9658 30.307 79.3182 30.376C79.6846 30.4515 80.0579 30.4888 80.4322 30.4874C81.8316 30.4874 82.904 30.0722 83.6493 29.2417C84.418 28.3794 84.8238 27.2585 84.7833 26.1093V25.3133L84.0474 25.3173Z" fill="#656565"/>
<path d="M97.7402 29.2218H97.8046L101.975 17.5123H105.156L97.8327 35.98C97.6015 36.5611 97.3259 37.1239 97.0083 37.6636C96.7283 38.1377 96.3725 38.5638 95.9547 38.9253C95.5378 39.2765 95.0575 39.5465 94.5392 39.7213C93.9176 39.9212 93.2665 40.0168 92.6129 40.0039C92.2953 40.0039 91.9695 40.0039 91.6438 39.9561C91.3049 39.9233 90.9689 39.8661 90.6384 39.785L90.924 37.1661C91.4064 37.3319 91.9132 37.4179 92.4239 37.4208C92.7454 37.4463 93.0686 37.4018 93.3708 37.2904C93.6731 37.179 93.9469 37.0034 94.1732 36.776C94.6249 36.2228 94.9796 35.5985 95.2228 34.9292L96.1799 32.4417L89.7175 17.5123H93.0593L97.7402 29.2218Z" fill="#656565"/>
</g>
<defs>
<clipPath id="clip0_913_824">
<rect width="139" height="40" fill="white"/>
</clipPath>
</defs>
</svg>
